HIERARCHY
ROOT Hips
{
	OFFSET -0.179506 -22.333345 2.821913
	CHANNELS 6 Xposition Yposition Zposition Zrotation Yrotation Xrotation 
	JOINT LeftUpLeg
	{
		OFFSET 6.951974 -9.140623 -0.681533
		CHANNELS 3 Zrotation Yrotation Xrotation
		JOINT LeftLeg
		{
			OFFSET 3.427654 -37.519855 -0.449580
			CHANNELS 3 Zrotation Yrotation Xrotation
			JOINT LeftFoot
			{
				OFFSET -1.359570 -39.796059 -4.369333
				CHANNELS 3 Zrotation Yrotation Xrotation
				JOINT LeftToe
				{
					OFFSET 2.635814 -5.579078 11.928840
					CHANNELS 3 Zrotation Yrotation Xrotation
					End Site
					{
						OFFSET 0.000000 0.000000 0.000000
					}
				}
			}
		}
	}
	JOINT RightUpLeg
	{
		OFFSET -6.767048 -9.052170 -0.431982
		CHANNELS 3 Zrotation Yrotation Xrotation
		JOINT RightLeg
		{
			OFFSET -3.829005 -38.256897 -0.885003
			CHANNELS 3 Zrotation Yrotation Xrotation
			JOINT RightFoot
			{
				OFFSET 1.577377 -39.841461 -4.231180
				CHANNELS 3 Zrotation Yrotation Xrotation
				JOINT RightToe
				{
					OFFSET -2.537174 -4.814398 12.334795
					CHANNELS 3 Zrotation Yrotation Xrotation
					End Site
					{
						OFFSET 0.000000 0.000000 0.000000
					}
				}
			}
		}
	}
	JOINT Spine
	{
		OFFSET -0.253288 10.896323 -2.669631
		CHANNELS 3 Zrotation Yrotation Xrotation
		JOINT Spine1
		{
			OFFSET 0.548704 13.518043 0.109247
			CHANNELS 3 Zrotation Yrotation Xrotation
			JOINT Spine2
			{
				OFFSET 0.145701 5.292222 2.542457
				CHANNELS 3 Zrotation Yrotation Xrotation
				JOINT Neck
				{
					OFFSET -0.277840 21.387037 -4.285703
					CHANNELS 3 Zrotation Yrotation Xrotation
					JOINT Head
					{
						OFFSET 0.515184 6.496960 5.134897
						CHANNELS 3 Zrotation Yrotation Xrotation
						End Site
						{
							OFFSET 0.000000 0.000000 0.000000
						}
					}
				}
				JOINT LeftShoulder
				{
					OFFSET 7.884473 12.174932 -3.408961
					CHANNELS 3 Zrotation Yrotation Xrotation
					JOINT LeftArm
					{
						OFFSET 9.097692 3.046888 -0.886815
						CHANNELS 3 Zrotation Yrotation Xrotation
						JOINT LeftForeArm
						{
							OFFSET 25.961220 -1.277207 -2.745643
							CHANNELS 3 Zrotation Yrotation Xrotation
							JOINT LeftHand
							{
								OFFSET 24.923361 0.898606 -0.117091
								CHANNELS 3 Zrotation Yrotation Xrotation
								End Site
								{
									OFFSET 0.000000 0.000000 0.000000
								}
							}
						}
					}
				}
				JOINT RightShoulder
				{
					OFFSET -8.175920 11.883285 -3.861528
					CHANNELS 3 Zrotation Yrotation Xrotation
					JOINT RightArm
					{
						OFFSET -9.601238 3.255117 -0.914307
						CHANNELS 3 Zrotation Yrotation Xrotation
						JOINT RightForeArm
						{
							OFFSET -25.374195 -1.332924 -2.140099
							CHANNELS 3 Zrotation Yrotation Xrotation
							JOINT RightHand
							{
								OFFSET -25.529810 0.777228 -0.555919
								CHANNELS 3 Zrotation Yrotation Xrotation
								End Site
								{
									OFFSET 0.000000 0.000000 0.000000
								}
							}
						}
					}
				}
			}
		}
	}
}
MOTION
Frames: 18
Frame Time: 0.033333
-43.474712 -268.600739 97.823647 178.663949 0.454127 89.604496 -2.355900 1.466138 4.447159 2.666492 -1.395419 -5.166882 1.546942 10.840429 -2.471834 nan nan nan 3.189145 -2.356811 3.078699 0.315848 -2.141382 -4.176416 5.312309 -6.494104 1.611060 nan nan nan -0.640964 2.141473 2.227969 1.986659 -2.871170 4.059941 1.361680 -0.821652 -3.125998 -0.757297 -4.187754 1.558083 6.671318 -3.992844 -5.777358 -21.700759 2.873584 -0.371774 -61.619821 -4.228358 13.324676 6.512119 -27.826567 -3.786713 -14.308770 -17.784346 -4.826227 20.984953 2.628417 0.173605 59.235264 2.431475 13.672695 -8.686721 28.401050 -5.658216 11.926443 15.460535 -9.511593 
-43.455975 -268.602631 97.807205 178.720136 0.447080 89.575188 -2.350405 1.469432 4.420390 2.661763 -1.528935 -5.061267 1.619794 10.883664 -2.605984 nan nan nan 3.230211 -2.261301 2.653538 0.248419 -2.158013 -3.296810 5.315959 -6.521779 1.326907 nan nan nan -0.666652 2.048141 2.396052 1.981180 -2.834086 3.827381 1.361866 -0.818979 -3.032212 -0.667472 -4.255275 1.470304 6.746828 -4.001168 -5.676705 -21.574029 2.870977 -0.374641 -61.744721 -4.167231 13.395033 6.589964 -27.910170 -3.758092 -14.144968 -17.818095 -5.069607 20.926759 2.683375 0.124499 59.276543 2.407202 13.735104 -8.588697 28.305535 -5.521925 11.862516 15.458369 -9.664451 
-43.448799 -268.594330 97.804024 178.723612 0.446939 89.569499 -2.347581 1.463388 4.433058 2.661874 -1.547808 -5.066327 1.626959 10.885893 -2.616874 nan nan nan 3.230960 -2.251693 2.615920 0.252079 -2.156232 -3.214576 5.318603 -6.521638 1.297322 nan nan nan -0.669197 2.043924 2.410795 1.982392 -2.827501 3.818549 1.363705 -0.817138 -3.027218 -0.658736 -4.243064 1.457016 6.746625 -3.990604 -5.654173 -21.573487 2.865697 -0.374427 -61.739454 -4.164380 13.395995 6.603291 -27.917569 -3.756998 -14.119849 -17.815546 -5.075953 20.939582 2.685577 0.126474 59.280482 2.403324 13.737580 -8.595208 28.313786 -5.522327 11.843783 15.456288 -9.674988 
-43.462204 -268.595032 97.770912 179.048881 0.669598 89.730684 -2.083093 0.807443 4.514755 2.735586 -3.167885 -6.171445 -2.301921 9.050453 -0.308443 nan nan nan 3.338810 -2.224703 2.613943 0.480052 -2.398093 -3.484205 5.417043 -6.545884 1.440565 nan nan nan -0.360383 1.956816 2.095624 1.942441 -2.778919 3.761776 1.420043 -0.969608 -2.623862 -0.769440 -3.975953 1.000685 6.821067 -4.361559 -5.620917 -21.449843 2.947318 -0.340329 -62.146203 -4.734088 13.100614 6.383225 -27.227332 -4.067608 -14.277664 -19.171249 -5.893176 20.792262 2.115455 -0.099884 59.248663 2.633583 13.543608 -8.157452 28.518267 -4.955550 11.931427 15.803024 -9.709081 
-43.485382 -268.480988 97.710632 179.481550 0.352535 89.625319 -2.472946 0.590529 4.713544 2.891588 -3.446667 -6.225213 -2.554201 9.007612 -0.446010 nan nan nan 3.165192 -1.869890 2.877015 0.205415 -2.727743 -3.522563 5.442632 -6.876377 1.167342 nan nan nan -0.598425 1.805349 2.084156 1.847485 -2.832153 3.579767 1.394461 -1.181107 -2.272712 -0.779907 -3.979603 0.748155 6.897059 -4.418663 -5.499345 -21.109196 3.160499 -0.410302 -62.460563 -4.926478 12.925050 6.234567 -26.979867 -3.985613 -14.731983 -19.803616 -6.082887 20.549883 1.766713 -0.303804 59.570118 2.756815 13.491260 -7.856496 28.442380 -4.479850 12.169232 16.020008 -9.618167 
-43.476540 -268.404602 97.702133 179.719139 0.585334 90.047196 -2.313332 0.434404 4.125118 3.331704 -3.009071 -5.978442 -4.341642 8.335053 -0.568891 nan nan nan 2.928484 -2.846942 2.661146 0.705502 -2.659819 -3.908376 6.831705 -5.934571 1.648919 nan nan nan -0.566695 2.135440 1.252099 2.158465 -2.948741 4.179105 1.620532 -1.433664 -2.173318 -1.039736 -3.575468 0.550803 7.060362 -4.923589 -6.307816 -19.826165 3.286823 -0.695705 -64.888339 -5.171758 12.326114 4.908272 -25.118380 -7.665442 -12.369368 -22.335592 -10.064600 19.458333 0.558033 -0.840931 60.533464 3.701118 12.717861 -6.626977 27.690600 -4.893670 11.812376 16.810441 -9.149308 
-43.465218 -268.508484 97.691635 179.336884 0.628698 90.217311 -2.275571 0.543519 3.822688 3.308499 -2.779573 -5.884494 -4.348533 8.474576 -0.534990 nan nan nan 2.811198 -2.994746 2.110087 0.913391 -2.406289 -3.458337 7.025508 -5.599021 1.852187 nan nan nan -0.344956 2.208608 1.498691 2.068140 -2.791009 3.967710 1.487780 -1.282894 -2.280991 -1.002273 -3.516583 0.524825 7.111965 -4.823406 -6.338244 -19.941573 3.412367 -0.931826 -64.719333 -5.109339 12.442294 4.812443 -25.094183 -7.555941 -12.370134 -22.400575 -9.873281 19.480119 0.449119 -0.971593 60.613091 3.846864 12.739400 -6.453305 27.530488 -4.860540 11.777197 16.734347 -9.032893 
-43.452850 -268.386719 97.693558 179.656881 0.658636 90.145624 -2.201205 0.477043 3.961177 3.336865 -2.908647 -5.908289 -4.237484 8.262414 -0.521416 nan nan nan 2.811086 -3.235383 2.433401 0.974054 -2.445912 -3.741777 7.124253 -5.647519 2.014909 nan nan nan -0.399473 2.206184 1.131259 2.127495 -2.967012 4.365345 1.511254 -1.354421 -2.250268 -0.934047 -3.448907 0.704234 7.119942 -4.903358 -6.461511 -20.015297 3.379357 -0.871722 -64.617474 -5.205339 12.325323 4.728583 -25.106914 -7.525152 -12.308545 -22.303259 -9.677640 19.548053 0.380428 -0.917486 60.568730 3.857371 12.644652 -6.457101 27.609738 -4.886419 11.676222 16.661413 -8.801784 
-43.457966 -268.355225 97.669807 179.680111 0.678447 90.128500 -2.256400 0.459423 3.981875 3.605071 -2.886651 -5.930073 -4.215740 7.886525 -0.370697 nan nan nan 2.673603 -3.299847 2.620903 1.075630 -3.044077 -3.900746 7.909546 -4.918584 2.007000 nan nan nan -0.421471 2.286576 0.964055 2.167932 -2.959297 4.733605 1.579461 -1.294820 -2.361280 -0.979082 -3.307845 0.864413 7.239409 -5.115074 -6.693333 -19.893279 3.133501 -0.857643 -64.854951 -5.331344 12.120134 4.659814 -24.805963 -7.872763 -12.596243 -22.851752 -9.776882 19.297314 0.152917 -0.805930 60.775584 4.038182 12.307487 -6.393337 27.716484 -4.868856 11.919987 16.854420 -8.626823 
-43.457550 -268.337341 97.655228 179.652644 0.673054 90.144197 -2.292622 0.439224 3.988768 3.713754 -2.919454 -5.987588 -3.995955 7.785555 -0.208098 nan nan nan 2.685830 -3.216718 2.571338 1.014797 -3.142871 -3.836843 7.911443 -4.944902 1.902999 nan nan nan -0.378835 2.285104 0.970426 2.134719 -2.924229 4.703117 1.550215 -1.264255 -2.338131 -0.960604 -3.295025 0.867828 7.272972 -5.113195 -6.686984 -19.888855 3.137402 -0.899350 -64.881427 -5.374226 12.039844 4.670346 -24.635862 -7.993194 -12.777142 -23.099526 -9.746128 19.242649 0.113949 -0.794172 60.900943 4.030098 12.316570 -6.512803 27.739260 -4.821270 12.049094 16.942926 -8.615274 
-43.437454 -268.374664 97.636475 179.418280 0.819243 90.146047 -2.069428 0.771024 3.920951 3.666919 -2.976757 -5.929836 -3.866894 7.720115 -0.118628 nan nan nan 2.975698 -3.252636 2.319596 0.804977 -2.902413 -3.454714 7.924896 -5.058978 1.680886 nan nan nan -0.326511 2.358971 1.376108 2.343206 -2.841394 4.124999 1.619113 -1.144776 -2.122236 -0.928867 -3.603170 0.955155 6.835314 -4.851552 -6.919224 -19.291885 2.724068 -1.122443 -65.654333 -4.332999 12.775566 4.643718 -23.785007 -8.090195 -11.534618 -18.120542 -12.707304 18.966528 0.123498 -1.075042 60.959987 3.918702 12.667549 -6.535707 27.792132 -5.265094 12.434060 15.461999 -8.873823 
-43.427719 -268.375824 97.616341 179.383194 0.828953 90.166944 -2.006055 0.828335 3.877543 3.593840 -2.931248 -5.876034 -3.886651 7.715480 -0.130509 nan nan nan 3.034061 -3.180041 2.287478 0.758146 -2.974777 -3.439617 7.928450 -5.069912 1.720800 nan nan nan -0.290269 2.347718 1.372395 2.329373 -2.817687 4.220728 1.595747 -1.037136 -2.164800 -0.888832 -3.662189 0.907748 6.822967 -4.951431 -6.897719 -19.433577 2.670491 -1.195882 -65.504017 -4.421824 12.769643 4.547284 -23.661499 -8.080845 -11.441584 -17.951228 -12.686071 18.927504 0.120398 -1.096471 61.046664 4.069019 12.657847 -6.542306 27.568871 -5.374892 12.438995 15.432177 -8.871608 
-43.415146 -268.356903 97.608177 179.459895 0.867335 90.152542 -1.933322 0.815698 3.871466 3.589895 -2.901156 -5.817417 -3.913411 7.684049 -0.126714 nan nan nan 3.098750 -3.200052 2.310787 0.733903 -3.070448 -3.401387 7.957038 -5.060213 1.680119 nan nan nan -0.302128 2.321252 1.304222 2.348544 -2.882556 4.423168 1.595590 -0.990101 -2.249126 -0.785516 -3.683780 0.986209 6.793261 -4.942847 -6.932812 -19.356187 2.584474 -1.168983 -65.576907 -4.382563 12.799311 4.723354 -23.913888 -8.198512 -11.435939 -17.503959 -12.517531 18.837271 0.305105 -1.052608 61.242479 4.206081 12.644884 -6.696476 27.230945 -5.596734 12.495222 15.382677 -8.867740 
-43.422241 -268.332031 97.611443 179.527364 0.863860 90.182165 -1.941060 0.756174 3.865127 3.611328 -2.927828 -5.825948 -3.940683 7.715600 -0.076960 nan nan nan 3.119159 -3.210261 2.232235 0.690702 -3.133043 -3.235801 7.959357 -5.082759 1.520785 nan nan nan -0.298772 2.317241 1.197077 2.343346 -2.909531 4.535630 1.575357 -1.000488 -2.270932 -0.759704 -3.720893 1.028854 6.804826 -4.904151 -6.952844 -19.416998 2.562669 -1.210021 -65.548931 -4.420921 12.770263 4.735679 -23.760647 -8.333477 -11.345106 -17.576100 -12.341838 18.813772 0.403364 -1.080916 61.345153 4.292790 12.650098 -6.775747 26.907994 -5.719245 12.526969 15.518877 -8.784802 
-43.429329 -268.317230 97.619362 179.515038 0.849818 90.193752 -1.947375 0.759486 3.889295 3.603591 -2.956770 -5.854188 -3.957332 7.770571 -0.107589 nan nan nan 3.134663 -3.209216 2.165706 0.660709 -3.077633 -3.091474 7.940247 -5.145149 1.443802 nan nan nan -0.340524 2.354287 1.144790 2.368311 -2.877915 4.614753 1.578386 -0.997078 -2.285378 -0.706852 -3.784469 0.956452 6.771549 -4.809862 -6.875158 -19.564936 2.572792 -1.282851 -65.388411 -4.472010 12.743251 4.633176 -23.635201 -8.325566 -11.281943 -17.418939 -12.146175 18.869327 0.375412 -1.097824 61.270648 4.281439 12.652411 -6.776932 26.932646 -5.768779 12.550935 15.551904 -8.685267 
-43.424362 -268.296570 97.622139 179.533882 0.856284 90.157507 -1.903363 0.789443 3.957325 3.590537 -2.990551 -5.858117 -3.962488 7.763883 -0.164472 nan nan nan 3.165412 -3.241019 2.257912 0.651242 -3.045935 -3.152124 7.872871 -5.201293 1.398901 nan nan nan -0.393206 2.357798 1.154897 2.402177 -2.871957 4.707923 1.603432 -0.989317 -2.321299 -0.631101 -3.805438 0.888392 6.736388 -4.693828 -6.806592 -19.680707 2.599856 -1.345598 -65.251016 -4.519742 12.687995 4.529851 -23.523392 -8.238476 -11.329554 -17.333385 -11.917381 18.939807 0.405778 -1.050919 61.172680 4.252576 12.642958 -6.782741 27.057915 -5.785894 12.546243 15.531476 -8.500604 
-43.425575 -268.265900 97.635353 179.583435 0.840224 90.094972 -1.870750 0.830420 4.032602 3.542861 -2.966003 -5.824248 -3.982978 7.752658 -0.249502 nan nan nan 3.150251 -3.268756 2.400419 0.653440 -3.044948 -3.227819 7.853438 -5.167225 1.357332 nan nan nan -0.421285 2.364797 1.214025 2.387211 -2.868548 4.739260 1.609868 -1.048115 -2.348605 -0.581557 -3.765533 0.943467 6.785423 -4.619836 -6.859494 -19.743615 2.607991 -1.318767 -65.118606 -4.546384 12.571002 4.422545 -23.457682 -8.195215 -11.334294 -17.306086 -11.850847 18.992296 0.459712 -1.024602 61.129856 4.278418 12.611083 -6.738648 26.977066 -5.812044 12.459726 15.539582 -8.445965 
-43.430416 -268.250610 97.639252 179.592768 0.832089 90.086611 -1.875659 0.832136 4.050706 3.543456 -2.968652 -5.825129 -3.976606 7.744476 -0.240688 nan nan nan 3.144415 -3.272198 2.430560 0.644348 -3.043716 -3.244171 7.831326 -5.152630 1.361049 nan nan nan -0.397202 2.363470 1.248382 2.363685 -2.872737 4.741373 1.588183 -1.079007 -2.383241 -0.562807 -3.787395 0.969633 6.794182 -4.575833 -6.857573 -19.764335 2.639409 -1.292492 -65.066490 -4.520200 12.534168 4.405945 -23.495146 -8.184192 -11.289413 -17.296472 -11.889799 19.009616 0.509105 -0.996472 61.109325 4.305749 12.609484 -6.706409 26.909122 -5.874254 12.438036 15.536569 -8.542980 
